# Blender v2.77 (sub 0) OBJ File: 'sphere2.blend'
# www.blender.org
mtllib hand.mtl
o Cylinder.003_Cylinder.005
v 0.289238 -0.532700 -0.723239
v 0.301618 -0.390185 -0.663878
v 0.398634 -0.439558 -0.570208
v 0.370543 -0.574078 -0.644737
v 0.160170 -0.529118 -0.759725
v 0.147612 -0.385911 -0.707414
v 0.098534 -0.656337 -0.594184
v 0.247417 -0.325789 -0.569533
v 0.226813 -0.211797 -0.484211
v 0.305756 -0.243784 -0.407041
v 0.325642 -0.365600 -0.494004
v 0.123238 -0.322343 -0.604636
v 0.108171 -0.211678 -0.522729
v -0.088253 -0.284124 -0.461496
v -0.134213 -0.340066 -0.376829
v -0.176781 -0.265776 -0.333188
v -0.136311 -0.188851 -0.412765
v 0.375623 -0.628078 -0.566869
v 0.404696 -0.503992 -0.477295
v 0.358448 -0.572267 -0.391657
v 0.336865 -0.685298 -0.495099
v 0.226437 -0.638467 -0.329832
v 0.226231 -0.740777 -0.443285
v 0.330531 -0.417554 -0.419086
v 0.310555 -0.288305 -0.326898
v 0.270304 -0.340374 -0.255260
v 0.293241 -0.472606 -0.350035
v 0.165497 -0.390564 -0.210942
v 0.186797 -0.525984 -0.300183
v -0.111677 -0.379092 -0.299194
v -0.157056 -0.330628 -0.241511
v -0.088613 -0.673489 -0.615378
v -0.149240 -0.558177 -0.535176
v -0.093375 -0.475704 -0.638621
v -0.041794 -0.604371 -0.702071
v 0.001451 -0.582685 -0.722325
v -0.041773 -0.449828 -0.662787
v -0.116121 -0.461244 -0.465758
v -0.071075 -0.394745 -0.549168
v -0.029468 -0.373880 -0.568653
v -0.047026 -0.264472 -0.482627
v 0.252961 -0.097340 -0.454555
v 0.344996 -0.146389 -0.366968
v 0.005832 -0.756969 -0.473932
v -0.036547 -0.657787 -0.366400
v -0.116861 -0.616913 -0.443945
v -0.061476 -0.722713 -0.538920
v 0.023652 -0.659458 -0.349382
v 0.056283 -0.758369 -0.459669
v -0.025254 -0.541562 -0.329670
v -0.048495 -0.407769 -0.233203
v -0.090012 -0.508604 -0.392196
v 0.000116 -0.408333 -0.220259
v 0.023287 -0.542910 -0.315947
v 0.057082 -0.405952 -0.211091
v 0.179377 -0.294298 -0.152617
v 0.056326 -0.322040 -0.151820
v 0.049795 -0.558442 -0.744966
v 0.015910 -0.420901 -0.689803
v 0.017044 -0.350555 -0.590437
v 0.000686 -0.244187 -0.504804
v -0.001014 -0.109452 -0.479986
v 0.116159 -0.088073 -0.489680
v 0.090947 -0.661326 -0.330358
v 0.112681 -0.759935 -0.443726
v 0.077549 -0.544412 -0.300611
v 0.326147 -0.262180 -0.200559
v 0.375871 -0.212459 -0.278708
v -0.075387 -0.141512 -0.447942
v 0.264843 0.056368 -0.393000
v 0.409572 0.000906 -0.309008
v 0.107887 0.065860 -0.428522
v -0.018575 -0.341500 -0.153525
v 0.071678 -0.148778 -0.109768
v -0.062026 -0.210511 -0.115285
v 0.336634 -0.113268 -0.103046
v 0.178842 -0.113111 -0.087932
v 0.416305 -0.052666 -0.190311
v -0.024810 0.038473 -0.413678
v -0.191628 -0.048234 -0.345794
v -0.118697 0.004644 -0.384028
v -0.225118 -0.203697 -0.158758
v -0.251769 -0.143228 -0.258907
v -0.077876 -0.357946 -0.162438
v 0.305331 0.215722 -0.313733
v 0.486589 0.142120 -0.258154
v 0.085452 0.213358 -0.352371
v -0.067885 0.120604 -0.038253
v -0.143972 0.028901 -0.049181
v 0.286980 0.077269 -0.055338
v 0.077752 0.164381 -0.048183
v 0.492832 0.075397 -0.140642
v -0.073353 0.176929 -0.335974
v -0.277140 0.089816 -0.237386
v -0.171295 0.144914 -0.300413
v -0.269952 -0.013168 -0.066493
v -0.329416 0.055224 -0.108994
v -0.134639 -0.220627 -0.107110
v 0.230471 0.321403 -0.224073
v 0.041690 0.315955 -0.277344
v 0.016636 0.421113 -0.239368
v 0.193736 0.440791 -0.187100
v -0.075441 0.240694 -0.022629
v -0.184969 0.236970 -0.021963
v 0.114521 0.285486 -0.032104
v 0.445846 0.119446 -0.108517
v 0.585574 0.317053 -0.020336
v 0.521903 0.325920 0.003898
v -0.124501 0.282496 -0.253040
v -0.124211 0.397128 -0.212481
v -0.232835 0.254424 -0.217539
v -0.321330 0.219691 -0.167080
v -0.328780 0.330769 -0.149463
v -0.261314 0.355942 -0.180956
v -0.340714 0.153647 -0.063812
v -0.286982 0.106348 -0.034929
v -0.286982 0.106348 -0.034929
v -0.368990 0.278515 -0.035266
v 0.390336 0.155760 -0.079012
v -0.218765 -0.016553 -0.059917
v 0.052949 0.730669 0.044553
v 0.166378 0.731992 0.035502
v 0.173741 0.852412 0.190834
v 0.070875 0.854985 0.196681
v 0.248927 0.229227 -0.061379
v -0.304245 0.651752 0.101279
v -0.198450 0.681165 0.089827
v -0.215516 0.801095 0.262603
v -0.315944 0.772598 0.273642
v -0.144156 0.717022 0.097284
v -0.004194 0.736284 0.083075
v -0.027856 0.885799 0.269585
v -0.129691 0.870946 0.280132
v 0.034558 0.382743 -0.070725
v 0.203003 0.414278 -0.082024
v -0.260820 0.319578 -0.046933
v -0.123802 0.357610 -0.059275
v 0.378345 0.224152 -0.263684
v 0.294987 0.252472 -0.210999
v -0.471555 0.665501 0.044301
v -0.484257 0.577197 0.095673
v -0.491961 0.641910 0.214367
v -0.471690 0.697032 0.175046
v -0.420079 0.656165 0.203117
v -0.430944 0.707994 0.166629
v -0.419902 0.699421 0.037773
v -0.395662 0.620450 0.094386
v -0.304592 0.878997 0.201849
v -0.249213 0.912235 0.183779
v -0.301670 0.760130 0.026666
v -0.226099 0.797725 0.006434
v -0.149983 0.949201 0.225049
v -0.060019 0.968062 0.211689
v -0.044635 0.849845 0.003262
v -0.163885 0.823880 0.020591
v 0.069207 0.926413 0.139772
v 0.157963 0.911481 0.141946
v 0.152320 0.802874 -0.019941
v 0.039231 0.827008 -0.027575
v 0.430450 0.437915 -0.038918
v 0.465149 0.333823 0.025501
v 0.512152 0.461968 0.076097
v 0.486250 0.479663 0.040105
v 0.571946 0.392184 -0.121519
v 0.497134 0.416362 -0.077846
v 0.542917 0.453963 0.058378
v 0.525887 0.478344 0.025237
v 0.570355 0.476862 0.008558
v 0.577430 0.444984 0.038499
v -0.338428 0.485479 -0.001336
v -0.430913 0.441381 0.003404
v -0.351447 0.552520 -0.098830
v -0.409066 0.516062 -0.082900
v -0.185633 0.610805 -0.144700
v -0.169949 0.527405 -0.018679
v -0.282489 0.575766 -0.116016
v -0.281430 0.499102 -0.004954
v -0.138099 0.547215 -0.017897
v -0.151274 0.626753 -0.139501
v -0.023362 0.653062 -0.160939
v 0.016357 0.567838 -0.032589
v 0.050117 0.569420 -0.042102
v 0.022807 0.648517 -0.162619
v 0.156032 0.629658 -0.136205
v 0.168536 0.576573 -0.052580
vn 0.7320 0.2068 -0.6492
vn 0.2637 0.3513 -0.8984
vn 0.1388 -0.8095 -0.5704
vn 0.7123 0.4897 -0.5029
vn 0.2394 0.6039 -0.7603
vn -0.8241 -0.1418 -0.5484
vn 0.9101 -0.3605 0.2041
vn 0.5657 -0.6129 0.5517
vn 0.9077 -0.1352 0.3973
vn 0.5329 -0.4178 0.7358
vn -0.8479 -0.5192 -0.1069
vn -0.8482 -0.0819 -0.5234
vn -0.5001 0.2134 -0.8393
vn -0.9114 0.1526 -0.3823
vn -0.5616 0.4562 -0.6902
vn 0.6986 0.0198 -0.7152
vn -0.6683 -0.6592 0.3447
vn -0.1968 -0.7581 0.6217
vn -0.7262 -0.4788 0.4933
vn -0.2240 -0.5927 0.7737
vn 0.1046 -0.5489 0.8293
vn -0.2085 0.3194 -0.9244
vn -0.2768 0.5617 -0.7796
vn -0.1707 0.2193 -0.9606
vn 0.1218 -0.7372 0.6646
vn 0.0811 -0.5361 0.8403
vn 0.4410 -0.6055 0.6625
vn 0.9812 -0.1224 -0.1489
vn -0.8822 -0.4708 0.0100
vn 0.9899 0.1394 0.0249
vn 0.8621 -0.3201 -0.3929
vn -0.9519 -0.2638 0.1555
vn -0.5418 0.1278 -0.8308
vn 0.5889 0.7839 -0.1967
vn 0.1625 0.8559 -0.4909
vn 0.7586 0.2440 0.6042
vn 0.4533 -0.0744 0.8883
vn -0.8966 0.4157 -0.1527
vn -0.5619 0.6781 -0.4737
vn -0.5619 0.6782 -0.4737
vn -0.7241 -0.1429 0.6747
vn -0.2690 -0.2664 0.9256
vn 0.8142 0.5006 0.2940
vn -0.9291 0.0556 0.3656
vn -0.2823 0.7845 -0.5522
vn 0.0371 -0.2424 0.9695
vn 0.7739 -0.6323 0.0352
vn 0.6222 0.1473 -0.7689
vn 0.2399 0.3572 -0.9027
vn 0.0635 -0.2492 0.9664
vn 0.2261 -0.4351 0.8716
vn 0.9413 -0.1884 -0.2800
vn -0.1619 0.3692 -0.9151
vn -0.5692 0.1712 -0.8041
vn -0.8862 -0.4557 -0.0834
vn 0.8345 -0.3787 0.4002
vn -0.5723 -0.7772 0.2616
vn 0.0422 -0.6376 0.7692
vn 0.2780 0.2072 -0.9380
vn 0.4515 0.2000 -0.8696
vn 0.1817 0.4358 -0.8815
vn 0.0879 -0.2242 0.9706
vn 0.0173 -0.1783 0.9838
vn 0.8779 -0.4055 -0.2547
vn -0.1885 0.4286 -0.8836
vn -0.5851 0.2434 -0.7736
vn -0.8990 -0.3975 0.1837
vn 0.5380 -0.2876 0.7924
vn -0.5882 -0.5750 0.5687
vn -0.8091 -0.0889 -0.5808
vn -0.0082 -0.2880 0.9576
vn 0.2348 0.3653 -0.9008
vn 0.0109 -0.1279 0.9917
vn -0.0186 -0.1261 0.9919
vn 0.1861 -0.5071 0.8415
vn -0.2122 0.3075 -0.9276
vn -0.5007 0.1334 -0.8553
vn -0.6456 -0.3061 0.6996
vn 0.3576 -0.1954 0.9132
vn 0.0942 -0.1409 0.9855
vn -0.3960 -0.4183 0.8175
vn -0.8726 -0.0501 -0.4858
vn 0.0145 -0.1932 0.9810
vn 0.0382 -0.7834 0.6204
vn 0.2521 0.1014 0.9624
vn 0.2796 -0.7763 0.5649
vn 0.1714 -0.7592 0.6279
vn 0.1493 0.2665 0.9522
vn 0.0004 0.2953 0.9554
vn -0.0088 0.3268 0.9450
vn 0.1140 0.9390 -0.3244
vn -0.1403 -0.2715 0.9522
vn -0.9485 -0.0838 -0.3055
vn -0.0578 0.0632 0.9963
vn -0.9816 0.1657 -0.0948
vn -0.3256 0.2799 -0.9031
vn 0.0171 -0.1503 0.9885
vn -0.4057 0.3431 -0.8472
vn 0.0673 -0.2232 0.9724
vn -0.0176 -0.7654 0.6433
vn -0.4260 0.2833 -0.8592
vn 0.0570 -0.3097 0.9491
vn -0.2690 -0.2663 0.9256
vn -0.4543 0.1498 -0.8782
vn -0.1722 -0.5717 0.8022
vn -0.5423 0.4692 -0.6969
vn 0.0133 0.5775 0.8163
vn -0.4518 0.8785 -0.1552
vn 0.9462 0.3129 0.0829
vn 0.3351 -0.8435 0.4198
vn -0.0692 0.5631 0.8235
vn -0.9980 0.0246 -0.0589
vn -0.5208 0.6936 -0.4977
vn 0.9720 0.2311 -0.0432
vn 0.0007 0.5757 0.8176
vn -0.2508 0.8334 -0.4925
vn 0.9537 0.2843 -0.0985
vn -0.9831 -0.1066 0.1488
vn 0.0727 0.6339 0.7700
vn 0.1852 0.8216 -0.5391
vn 0.9841 0.1225 -0.1288
vn -0.9903 0.0152 0.1378
vn -0.8197 0.0616 0.5694
vn -0.8168 0.0343 0.5759
vn 0.9473 -0.2227 -0.2305
vn -0.1596 0.7335 -0.6606
vn 0.2854 0.8871 0.3627
vn 0.9918 0.1070 -0.0693
vn 0.3150 -0.3974 0.8619
vn -0.0520 0.8779 -0.4760
vn 0.5708 0.3980 -0.7182
vn 0.8822 0.4692 0.0406
vn 0.9103 0.2617 0.3209
vn 0.4700 0.8387 0.2750
vn 0.1643 0.0802 0.9831
vn -0.0826 0.8479 -0.5237
vn 0.3040 -0.4295 0.8504
vn 0.3527 0.7613 0.5441
vn 0.1405 0.5401 -0.8298
vn 0.4376 0.5284 -0.7275
vn 0.1674 -0.5334 0.8291
vn 0.3677 -0.2591 0.8931
vn 0.1567 -0.1823 0.9707
vn 0.2583 -0.4775 0.8398
vn 0.9164 0.3827 0.1174
vn 0.9360 0.3391 0.0950
vn -0.4184 0.1613 -0.8938
vn -0.4577 0.4698 -0.7549
vn -0.8780 -0.2321 -0.4187
vn -0.9289 -0.1035 -0.3557
vn 0.9653 0.2548 0.0565
vn 0.9789 0.2041 -0.0077
vn -0.3106 0.2237 -0.9238
vn -0.4282 0.5175 -0.7409
vn -0.9949 -0.0942 -0.0371
vn -0.9948 -0.0679 -0.0758
vn 0.1547 -0.1992 0.9677
vn 0.2354 -0.5310 0.8140
vn -0.9950 -0.0998 0.0060
vn -0.9924 -0.1021 0.0687
vn 0.9782 0.1698 -0.1192
vn 0.9617 0.2275 -0.1531
vn -0.2198 0.2751 -0.9360
vn -0.2466 0.6032 -0.7585
vn 0.1102 -0.1972 0.9742
vn 0.1550 -0.5485 0.8216
vn -0.9872 0.0113 0.1590
vn -0.9852 -0.0509 0.1635
vn 0.9780 0.2069 -0.0256
vn 0.9899 0.0870 -0.1115
vn 0.2336 0.3012 -0.9245
vn 0.2088 0.5635 -0.7992
vn 0.0960 -0.1583 0.9827
vn 0.0910 -0.4813 0.8718
vn -0.4023 0.4174 -0.8148
vn -0.9446 -0.0670 -0.3213
vn -0.7146 -0.3132 0.6256
vn -0.5715 0.2481 -0.7822
vn -0.2161 0.5258 -0.8227
vn 0.1518 0.6648 -0.7314
vn 0.7356 0.6579 -0.1613
usemtl Material.013
s 1
f 1//1 2//1 3//1 4//1
f 1//2 5//2 6//2 2//2
f 1//3 4//3 7//3 5//3
f 8//4 9//4 10//4 11//4
f 8//5 12//5 13//5 9//5
f 14//6 15//6 16//6 17//6
f 18//7 19//7 20//7 21//7
f 20//8 22//8 23//8 21//8
f 18//3 21//3 23//3 7//3
f 24//9 25//9 26//9 27//9
f 26//10 28//10 29//10 27//10
f 15//11 30//11 31//11 16//11
f 32//12 33//12 34//12 35//12
f 36//13 35//13 34//13 37//13
f 36//3 7//3 32//3 35//3
f 38//14 15//14 14//14 39//14
f 40//15 39//15 14//15 41//15
f 10//16 9//16 42//16 43//16
f 44//17 45//17 46//17 47//17
f 48//18 45//18 44//18 49//18
f 7//3 49//3 44//3 47//3
f 50//19 51//19 30//19 52//19
f 53//20 51//20 50//20 54//20
f 55//21 28//21 56//21 57//21
f 5//22 58//22 59//22 6//22
f 5//3 7//3 58//3
f 12//23 60//23 61//23 13//23
f 13//24 61//24 62//24 63//24
f 22//25 64//25 65//25 23//25
f 7//3 23//3 65//3
f 28//26 55//26 66//26 29//26
f 28//27 26//27 67//27 56//27
f 4//28 3//28 19//28 18//28
f 4//3 18//3 7//3
f 47//29 46//29 33//29 32//29
f 7//3 47//3 32//3
f 11//30 10//30 25//30 24//30
f 25//31 10//31 43//31 68//31
f 52//32 30//32 15//32 38//32
f 41//33 14//33 17//33 69//33
f 2//34 8//34 11//34 3//34
f 2//35 6//35 12//35 8//35
f 19//36 24//36 27//36 20//36
f 27//37 29//37 22//37 20//37
f 33//38 38//38 39//38 34//38
f 37//39 34//40 39//40 40//39
f 45//41 50//41 52//41 46//41
f 54//42 50//42 45//42 48//42
f 3//43 11//43 24//43 19//43
f 46//44 52//44 38//44 33//44
f 6//45 59//45 60//45 12//45
f 29//46 66//46 64//46 22//46
f 26//47 25//47 68//47 67//47
f 43//48 42//48 70//48 71//48
f 42//49 63//49 72//49 70//49
f 73//50 57//50 74//50 75//50
f 56//51 67//51 76//51 77//51
f 68//52 43//52 71//52 78//52
f 63//53 62//53 79//53 72//53
f 69//54 17//54 80//54 81//54
f 16//55 31//55 82//55 83//55
f 67//56 68//56 78//56 76//56
f 30//57 51//57 84//57 31//57
f 53//58 55//58 57//58 73//58
f 9//59 13//59 63//59 42//59
f 71//60 70//60 85//60 86//60
f 70//61 72//61 87//61 85//61
f 75//62 74//62 88//62 89//62
f 77//63 76//63 90//63 91//63
f 78//64 71//64 86//64 92//64
f 72//65 79//65 93//65 87//65
f 81//66 80//66 94//66 95//66
f 83//67 82//67 96//67 97//67
f 76//68 78//68 92//68 90//68
f 31//69 84//69 98//69 82//69
f 17//70 16//70 83//70 80//70
f 57//71 56//71 77//71 74//71
f 99//72 100//72 101//72 102//72
f 89//73 88//73 103//73 104//73
f 91//74 90//74 105//74
f 106//75 92//75 107//75 108//75
f 100//76 109//76 110//76 101//76
f 111//77 112//77 113//77 114//77
f 115//78 116//78 117//78 118//78
f 119//79 90//79 106//79
f 88//80 91//80 105//80 103//80
f 82//81 98//81 120//81 96//81
f 80//82 83//82 97//82 94//82
f 74//83 77//83 91//83 88//83
f 121//84 122//84 123//84 124//84
f 105//85 90//85 125//85
f 126//86 127//86 128//86 129//86
f 130//87 131//87 132//87 133//87
f 134//88 105//88 125//88 135//88
f 136//89 104//89 103//89 137//89
f 137//90 103//90 105//90 134//90
f 138//91 85//91 139//91
f 96//92 120//92 117//92 116//92
f 112//93 115//93 118//93 113//93
f 118//94 117//94 104//94 136//94
f 140//95 141//95 142//95 143//95
f 109//96 111//96 114//96 110//96
f 120//97 89//97 104//97 117//97
f 79//98 81//98 95//98 93//98
f 98//99 75//99 89//99 120//99
f 51//100 53//100 73//100 84//100
f 62//101 69//101 81//101 79//101
f 84//102 73//102 75//102 98//102
f 66//103 54//42 48//42 64//103
f 59//39 37//39 40//39 60//39
f 61//104 41//104 69//104 62//104
f 55//105 53//105 54//105 66//105
f 7//3 65//3 49//3
f 64//18 48//18 49//18 65//18
f 60//106 40//106 41//106 61//106
f 58//3 7//3 36//3
f 58//13 36//13 37//13 59//13
f 143//107 142//107 144//107 145//107
f 146//108 140//108 143//108 145//108
f 147//109 146//109 145//109 144//109
f 141//110 147//110 144//110 142//110
f 148//111 129//111 128//111 149//111
f 150//112 126//112 129//112 148//112
f 151//113 150//113 148//113 149//113
f 127//114 151//114 149//114 128//114
f 152//115 133//115 132//115 153//115
f 154//116 155//116 152//116 153//116
f 131//117 154//117 153//117 132//117
f 155//118 130//118 133//118 152//118
f 156//119 124//119 123//119 157//119
f 158//120 159//120 156//120 157//120
f 122//121 158//121 157//121 123//121
f 159//122 121//122 124//122 156//122
f 160//123 161//123 162//123 163//123
f 139//124 119//124 161//124 160//124
f 92//125 86//125 164//125 107//125
f 138//126 139//126 160//126 165//126
f 166//127 167//127 163//127 162//127
f 107//128 164//128 168//128 169//128
f 108//129 107//129 169//129 166//129
f 165//130 160//130 163//130 167//130
f 139//131 99//131 102//131
f 135//132 139//132 102//132
f 135//133 125//133 139//133
f 139//134 125//134 119//134
f 90//135 119//135 125//135
f 164//136 165//136 167//136 168//136
f 161//137 108//137 166//137 162//137
f 169//138 168//138 167//138 166//138
f 86//139 138//139 165//139 164//139
f 86//140 85//140 138//140
f 119//141 106//141 108//141 161//141
f 90//142 92//142 106//142
f 118//143 136//143 170//143 171//143
f 171//144 170//144 147//144 141//144
f 136//145 114//145 172//145 170//145
f 170//146 172//146 146//146 147//146
f 114//147 113//147 173//147 172//147
f 172//148 173//148 140//148 146//148
f 113//149 118//149 171//149 173//149
f 173//150 171//150 141//150 140//150
f 137//151 110//151 174//151 175//151
f 175//152 174//152 151//152 127//152
f 110//153 114//153 176//153 174//153
f 174//154 176//154 150//154 151//154
f 114//155 136//155 177//155 176//155
f 176//156 177//156 126//156 150//156
f 136//157 137//157 175//157 177//157
f 177//158 175//158 127//158 126//158
f 110//159 137//159 178//159 179//159
f 179//160 178//160 130//160 155//160
f 134//161 101//161 180//161 181//161
f 181//162 180//162 154//162 131//162
f 101//163 110//163 179//163 180//163
f 180//164 179//164 155//164 154//164
f 137//165 134//165 181//165 178//165
f 178//166 181//166 131//166 130//166
f 101//167 134//167 182//167 183//167
f 183//168 182//168 121//168 159//168
f 135//169 102//169 184//169 185//169
f 185//170 184//170 158//170 122//170
f 102//171 101//171 183//171 184//171
f 184//172 183//172 159//172 158//172
f 134//173 135//173 185//173 182//173
f 182//174 185//174 122//174 121//174
f 93//175 95//175 111//175 109//175
f 94//176 97//176 115//176 112//176
f 97//177 96//177 116//177 115//177
f 95//178 94//178 112//178 111//178
f 87//179 93//179 109//179 100//179
f 85//180 87//180 100//180 99//180
f 99//181 139//181 85//181
