# Blender v2.77 (sub 0) OBJ File: ''
# www.blender.org
# not convert to polar coordinates
mtllib map1.mtl
o Sphere
v -0.293893 0.951057 -0.095492
v -0.559017 0.809017 -0.181636
v -0.769421 0.587785 -0.250000
v -0.904509 0.309017 -0.293893
v -0.951057 -0.000000 -0.309017
v -0.904508 -0.309017 -0.293893
v -0.769421 -0.587785 -0.250000
v -0.559017 -0.809017 -0.181636
v -0.293892 -0.951057 -0.095492
v -0.250000 0.951057 -0.181636
v -0.475528 0.809017 -0.345492
v -0.654509 0.587785 -0.475528
v -0.769421 0.309017 -0.559017
v -0.809017 -0.000000 -0.587785
v -0.769421 -0.309017 -0.559017
v -0.654509 -0.587785 -0.475528
v -0.475528 -0.809017 -0.345492
v -0.250000 -0.951057 -0.181636
v -0.181636 0.951057 -0.250000
v -0.345491 0.809017 -0.475529
v -0.475528 0.587785 -0.654509
v -0.559017 0.309017 -0.769421
v -0.587785 -0.000000 -0.809017
v -0.559017 -0.309017 -0.769421
v -0.475528 -0.587785 -0.654509
v -0.345491 -0.809017 -0.475529
v -0.181635 -0.951057 -0.250000
v 0.000000 -1.000000 0.000000
v -0.095491 0.951057 -0.293893
v -0.181635 0.809017 -0.559017
v -0.250000 0.587785 -0.769421
v -0.293892 0.309017 -0.904509
v -0.309017 -0.000000 -0.951057
v -0.293892 -0.309017 -0.904509
v -0.250000 -0.587785 -0.769421
v -0.181635 -0.809017 -0.559017
v -0.095491 -0.951057 -0.293893
v 0.000000 0.951057 -0.309017
v 0.000000 0.809017 -0.587786
v 0.000000 0.587785 -0.809017
v 0.000000 0.309017 -0.951057
v 0.000000 -0.000000 -1.000001
v 0.000000 -0.309017 -0.951057
v 0.000000 -0.587785 -0.809017
v 0.000000 -0.809017 -0.587786
v 0.000000 -0.951057 -0.309017
v 0.095492 0.951057 -0.293893
v 0.181636 0.809017 -0.559017
v 0.250000 0.587785 -0.769421
v 0.293893 0.309017 -0.904509
v 0.309018 -0.000000 -0.951057
v 0.293893 -0.309017 -0.904509
v 0.250000 -0.587785 -0.769421
v 0.181636 -0.809017 -0.559017
v 0.095492 -0.951057 -0.293893
v 0.181636 0.951057 -0.250000
v 0.345492 0.809017 -0.475529
v 0.475529 0.587785 -0.654509
v 0.559018 0.309017 -0.769421
v 0.587786 -0.000000 -0.809018
v 0.559018 -0.309017 -0.769421
v 0.475529 -0.587785 -0.654509
v 0.345492 -0.809017 -0.475529
v 0.181636 -0.951057 -0.250000
v 0.250001 0.951057 -0.181636
v 0.475529 0.809017 -0.345492
v 0.654509 0.587785 -0.475529
v 0.769422 0.309017 -0.559017
v 0.809018 -0.000000 -0.587786
v 0.769422 -0.309017 -0.559017
v 0.654509 -0.587785 -0.475529
v 0.475529 -0.809017 -0.345492
v 0.250000 -0.951057 -0.181636
v 0.293893 0.951057 -0.095492
v 0.559018 0.809017 -0.181636
v 0.769422 0.587785 -0.250000
v 0.904509 0.309017 -0.293893
v 0.951057 -0.000000 -0.309017
v 0.904509 -0.309017 -0.293893
v 0.769422 -0.587785 -0.250000
v 0.559018 -0.809017 -0.181636
v 0.293893 -0.951057 -0.095492
v 0.309018 0.951057 0.000000
v 0.587786 0.809017 0.000000
v 0.809018 0.587785 -0.000000
v 0.951057 0.309017 0.000000
v 1.000001 -0.000000 -0.000000
v 0.951057 -0.309017 -0.000000
v 0.809018 -0.587785 -0.000000
v 0.587786 -0.809017 0.000000
v 0.309018 -0.951057 0.000000
v 0.000000 1.000000 0.000000
v -0.309017 0.951057 -0.000000
v -0.587786 0.809017 -0.000000
v -0.809017 0.587785 0.000000
v -0.951057 0.309017 -0.000000
v -1.000001 -0.000000 0.000000
v -0.951057 -0.309017 -0.000000
v -0.809017 -0.587785 0.000000
v -0.587786 -0.809017 -0.000000
v -0.309017 -0.951057 -0.000000
vn -0.7027 0.7027 -0.1113
vn -0.1564 -0.9874 -0.0248
vn -0.8823 -0.4495 -0.1397
vn -0.8823 0.4495 -0.1397
vn -0.1564 0.9874 -0.0248
vn -0.7027 -0.7027 -0.1113
vn -0.9758 0.1546 -0.1546
vn -0.4528 0.8887 -0.0717
vn -0.4528 -0.8887 -0.0717
vn -0.9758 -0.1546 -0.1546
vn -0.1411 -0.9874 -0.0719
vn -0.7959 -0.4495 -0.4055
vn -0.7959 0.4495 -0.4055
vn -0.1411 0.9874 -0.0719
vn -0.6339 -0.7027 -0.3230
vn -0.8803 0.1546 -0.4485
vn -0.4085 0.8887 -0.2081
vn -0.4085 -0.8887 -0.2081
vn -0.8803 -0.1546 -0.4485
vn -0.6339 0.7027 -0.3230
vn -0.6986 -0.1546 -0.6986
vn -0.5031 0.7027 -0.5031
vn -0.1120 -0.9874 -0.1120
vn -0.6316 -0.4495 -0.6316
vn -0.6316 0.4495 -0.6316
vn -0.1120 0.9874 -0.1120
vn -0.5031 -0.7027 -0.5031
vn -0.6986 0.1546 -0.6986
vn -0.3242 0.8887 -0.3242
vn -0.3242 -0.8887 -0.3242
vn -0.2081 0.8887 -0.4085
vn -0.2081 -0.8887 -0.4085
vn -0.4485 -0.1546 -0.8803
vn -0.3230 0.7027 -0.6339
vn -0.0719 -0.9874 -0.1411
vn -0.4055 -0.4495 -0.7959
vn -0.4055 0.4495 -0.7959
vn -0.0719 0.9874 -0.1411
vn -0.3230 -0.7027 -0.6339
vn -0.4485 0.1546 -0.8803
vn -0.1546 0.1546 -0.9758
vn -0.0717 0.8887 -0.4528
vn -0.0717 -0.8887 -0.4528
vn -0.1546 -0.1546 -0.9758
vn -0.1113 0.7027 -0.7027
vn -0.0248 -0.9874 -0.1564
vn -0.1397 -0.4495 -0.8823
vn -0.1397 0.4495 -0.8823
vn -0.0248 0.9874 -0.1564
vn -0.1113 -0.7027 -0.7027
vn 0.0248 0.9874 -0.1564
vn 0.1113 -0.7027 -0.7027
vn 0.1546 0.1546 -0.9758
vn 0.0717 0.8887 -0.4528
vn 0.0717 -0.8887 -0.4528
vn 0.1546 -0.1546 -0.9758
vn 0.1113 0.7027 -0.7027
vn 0.0248 -0.9874 -0.1564
vn 0.1397 -0.4495 -0.8823
vn 0.1397 0.4495 -0.8823
vn 0.4055 -0.4495 -0.7959
vn 0.4055 0.4495 -0.7959
vn 0.0719 0.9874 -0.1411
vn 0.3230 -0.7027 -0.6339
vn 0.4485 0.1546 -0.8803
vn 0.2081 0.8887 -0.4085
vn 0.2081 -0.8887 -0.4085
vn 0.4485 -0.1546 -0.8803
vn 0.3230 0.7027 -0.6339
vn 0.0719 -0.9874 -0.1411
vn 0.5031 0.7027 -0.5031
vn 0.1120 -0.9874 -0.1120
vn 0.6316 -0.4495 -0.6316
vn 0.6316 0.4495 -0.6316
vn 0.1120 0.9874 -0.1120
vn 0.5031 -0.7027 -0.5031
vn 0.6986 0.1546 -0.6986
vn 0.3242 0.8887 -0.3242
vn 0.3242 -0.8887 -0.3242
vn 0.6986 -0.1546 -0.6986
vn 0.8803 -0.1546 -0.4485
vn 0.6339 0.7027 -0.3230
vn 0.1411 -0.9874 -0.0719
vn 0.7959 -0.4495 -0.4055
vn 0.7959 0.4495 -0.4055
vn 0.1411 0.9874 -0.0719
vn 0.6339 -0.7027 -0.3230
vn 0.8803 0.1546 -0.4485
vn 0.4085 0.8887 -0.2081
vn 0.4085 -0.8887 -0.2081
vn 0.4528 0.8887 -0.0717
vn 0.4528 -0.8887 -0.0717
vn 0.9758 -0.1546 -0.1546
vn 0.7027 0.7027 -0.1113
vn 0.1564 -0.9874 -0.0248
vn 0.8823 -0.4495 -0.1397
vn 0.8823 0.4495 -0.1397
vn 0.1564 0.9874 -0.0248
vn 0.7027 -0.7027 -0.1113
vn 0.9758 0.1546 -0.1546
usemtl Material
s off
f 95//1 94//1 2//1 3//1
f 28//2 101//2 9//2
f 99//3 98//3 6//3 7//3
f 96//4 95//4 3//4 4//4
f 93//5 92//5 1//5
f 100//6 99//6 7//6 8//6
f 97//7 96//7 4//7 5//7
f 94//8 93//8 1//8 2//8
f 101//9 100//9 8//9 9//9
f 98//10 97//10 5//10 6//10
f 28//11 9//11 18//11
f 7//12 6//12 15//12 16//12
f 4//13 3//13 12//13 13//13
f 1//14 92//14 10//14
f 8//15 7//15 16//15 17//15
f 5//16 4//16 13//16 14//16
f 2//17 1//17 10//17 11//17
f 9//18 8//18 17//18 18//18
f 6//19 5//19 14//19 15//19
f 3//20 2//20 11//20 12//20
f 15//21 14//21 23//21 24//21
f 12//22 11//22 20//22 21//22
f 28//23 18//23 27//23
f 16//24 15//24 24//24 25//24
f 13//25 12//25 21//25 22//25
f 10//26 92//26 19//26
f 17//27 16//27 25//27 26//27
f 14//28 13//28 22//28 23//28
f 11//29 10//29 19//29 20//29
f 18//30 17//30 26//30 27//30
f 20//31 19//31 29//31 30//31
f 27//32 26//32 36//32 37//32
f 24//33 23//33 33//33 34//33
f 21//34 20//34 30//34 31//34
f 28//35 27//35 37//35
f 25//36 24//36 34//36 35//36
f 22//37 21//37 31//37 32//37
f 19//38 92//38 29//38
f 26//39 25//39 35//39 36//39
f 23//40 22//40 32//40 33//40
f 33//41 32//41 41//41 42//41
f 30//42 29//42 38//42 39//42
f 37//43 36//43 45//43 46//43
f 34//44 33//44 42//44 43//44
f 31//45 30//45 39//45 40//45
f 28//46 37//46 46//46
f 35//47 34//47 43//47 44//47
f 32//48 31//48 40//48 41//48
f 29//49 92//49 38//49
f 36//50 35//50 44//50 45//50
f 38//51 92//51 47//51
f 45//52 44//52 53//52 54//52
f 42//53 41//53 50//53 51//53
f 39//54 38//54 47//54 48//54
f 46//55 45//55 54//55 55//55
f 43//56 42//56 51//56 52//56
f 40//57 39//57 48//57 49//57
f 28//58 46//58 55//58
f 44//59 43//59 52//59 53//59
f 41//60 40//60 49//60 50//60
f 53//61 52//61 61//61 62//61
f 50//62 49//62 58//62 59//62
f 47//63 92//63 56//63
f 54//64 53//64 62//64 63//64
f 51//65 50//65 59//65 60//65
f 48//66 47//66 56//66 57//66
f 55//67 54//67 63//67 64//67
f 52//68 51//68 60//68 61//68
f 49//69 48//69 57//69 58//69
f 28//70 55//70 64//70
f 58//71 57//71 66//71 67//71
f 28//72 64//72 73//72
f 62//73 61//73 70//73 71//73
f 59//74 58//74 67//74 68//74
f 56//75 92//75 65//75
f 63//76 62//76 71//76 72//76
f 60//77 59//77 68//77 69//77
f 57//78 56//78 65//78 66//78
f 64//79 63//79 72//79 73//79
f 61//80 60//80 69//80 70//80
f 70//81 69//81 78//81 79//81
f 67//82 66//82 75//82 76//82
f 28//83 73//83 82//83
f 71//84 70//84 79//84 80//84
f 68//85 67//85 76//85 77//85
f 65//86 92//86 74//86
f 72//87 71//87 80//87 81//87
f 69//88 68//88 77//88 78//88
f 66//89 65//89 74//89 75//89
f 73//90 72//90 81//90 82//90
f 75//91 74//91 83//91 84//91
f 82//92 81//92 90//92 91//92
f 79//93 78//93 87//93 88//93
f 76//94 75//94 84//94 85//94
f 28//95 82//95 91//95
f 80//96 79//96 88//96 89//96
f 77//97 76//97 85//97 86//97
f 74//98 92//98 83//98
f 81//99 80//99 89//99 90//99
f 78//100 77//100 86//100 87//100
