# Blender v2.77 (sub 0) OBJ File: ''
# www.blender.org
mtllib rock.mtl
o Cube
v -1.515599 -0.608566 -0.387009
v -1.103737 -0.503089 -1.022289
v -0.927445 -1.011351 -0.985628
v -1.098035 -1.277047 -0.431370
v 0.627518 -0.675571 -1.660227
v 1.126385 -0.663562 -1.231018
v 0.964413 -1.081307 -1.292082
v 0.506438 -1.319996 -1.446980
v 1.468174 -0.568605 0.797202
v 1.391305 -0.389046 1.158479
v 1.121637 -0.896750 0.857024
v 1.166277 -1.058360 0.463577
v -0.644652 -0.638561 1.384996
v -1.309277 -0.322108 1.122298
v -0.932895 -0.976492 0.968456
v -0.429210 -0.940438 1.227987
v 0.682340 -1.520818 -0.809369
v 1.139448 -1.304043 -0.683888
v -0.657878 1.328111 -0.633518
v -0.570771 1.138903 -1.289544
v -0.995571 0.948030 -0.978194
v -1.107195 1.101235 -0.510684
v -0.555436 1.449681 0.511801
v -0.692999 1.512623 -0.074222
v -1.172390 1.096998 0.068074
v -1.095570 1.179045 0.654324
v 0.617269 1.535080 0.573047
v 0.571099 1.507474 0.088042
v -0.033678 1.885052 0.074289
v -0.004563 1.655282 0.596176
v 0.614499 1.402871 -0.526792
v 0.448964 1.097961 -1.094197
v 0.027792 1.164384 -1.245787
v 0.152426 1.614853 -0.628406
v 0.695678 -1.324284 0.530426
v 0.676720 -1.670521 0.007168
v 1.093869 -1.223788 0.050654
v -0.527707 -1.426844 0.478410
v -0.662193 -1.621241 -0.016237
v 0.087540 -1.803638 -0.212639
v 0.102287 -1.575817 0.385699
v -0.586649 -1.586822 -0.571566
v -0.489187 -1.170788 -1.294525
v -0.137647 -1.316803 -1.454628
v 0.007521 -1.723140 -0.866414
v 0.747651 -0.543253 1.639364
v -0.044630 -0.510919 1.632833
v 0.238015 -1.068676 1.194344
v 0.697098 -1.001771 1.096431
v 0.774164 0.861925 1.441761
v -0.078725 0.726281 1.647753
v -0.164835 -0.173282 1.743895
v 0.609677 0.032119 1.817993
v -0.835060 0.595286 1.651072
v -1.333496 0.483928 1.186366
v -1.491571 0.145256 1.050966
v -0.856120 0.071478 1.727527
v 1.446200 -0.634802 -0.655639
v 1.524686 -0.565830 0.045753
v 1.491060 0.580639 -0.721230
v 1.562522 0.478279 0.134471
v 1.573496 0.133104 0.103605
v 1.469953 -0.145792 -0.539045
v 1.487277 0.712824 0.715945
v 1.202432 0.780182 1.140784
v 1.259518 0.229915 1.487918
v 1.743184 0.268283 0.939408
v -0.578448 -0.704206 -1.594710
v -0.013957 -0.772208 -1.721311
v -0.655607 0.452994 -1.525850
v 0.086078 0.702768 -1.480051
v 0.034881 -0.185560 -1.560077
v -0.507073 -0.009497 -1.393221
v 0.627781 0.543902 -1.451880
v 1.172297 0.443999 -1.120205
v 1.260084 -0.052370 -1.366199
v 0.734842 -0.187394 -1.771897
v -1.711592 -0.570571 0.526573
v -1.655598 -0.592584 0.020343
v -1.246253 -1.161935 0.109401
v -1.261016 -1.155810 0.671024
v -1.392052 0.620426 0.569007
v -1.532883 0.673724 0.158085
v -1.729775 -0.156582 0.083011
v -1.825502 -0.108425 0.432403
v -1.486757 0.668031 -0.537724
v -1.149845 0.545676 -1.009082
v -1.250865 0.021164 -1.012083
v -1.552487 0.153042 -0.584763
v -0.806005 0.838940 1.215432
v 0.997837 0.836075 -1.000687
v 1.152048 1.062867 0.055417
v 1.024953 1.015744 0.507423
v 0.982851 1.175060 0.868308
v 1.099501 0.994965 -0.410139
v 0.025481 1.471946 1.086188
v -0.533610 1.289501 1.170439
v 0.628941 1.272956 0.933622
vt 0.7727 0.5101
vt 0.7144 0.4612
vt 0.7327 0.3809
vt 0.7872 0.3874
vt 0.5785 0.2806
vt 0.5134 0.2390
vt 0.5543 0.1940
vt 0.6282 0.2082
vt 0.2731 0.3361
vt 0.2591 0.3921
vt 0.2298 0.3079
vt 0.2429 0.2385
vt 0.0958 0.5231
vt 0.0451 0.6024
vt 0.0498 0.4794
vt 0.0962 0.4554
vt 0.6682 0.0813
vt 0.4576 0.0572
vt 0.5858 0.7209
vt 0.5919 0.6191
vt 0.6358 0.6553
vt 0.6520 0.7318
vt 0.7363 0.9249
vt 0.5617 0.8133
vt 0.7113 0.8076
vt 0.7752 0.8474
vt 0.3638 0.6827
vt 0.4123 0.6703
vt 0.4468 0.7604
vt 0.3670 0.7798
vt 0.4638 0.6129
vt 0.5134 0.5537
vt 0.5467 0.5846
vt 0.4974 0.6691
vt 0.1640 0.2328
vt 0.1090 0.1484
vt 0.2550 0.1630
vt 0.8847 0.3503
vt 0.8366 0.3205
vt 0.8479 0.1980
vt 0.9218 0.2521
vt 0.7839 0.2922
vt 0.7024 0.3143
vt 0.6813 0.2690
vt 0.7487 0.2044
vt 0.2015 0.4426
vt 0.1496 0.5040
vt 0.1423 0.3776
vt 0.1833 0.3421
vt 0.2719 0.6072
vt 0.2031 0.6751
vt 0.1549 0.5621
vt 0.2135 0.5292
vt 0.1303 0.7063
vt 0.0571 0.7226
vt 0.0328 0.6753
vt 0.1133 0.6365
vt 0.4268 0.2284
vt 0.3390 0.2676
vt 0.4390 0.4222
vt 0.3689 0.4390
vt 0.3615 0.3830
vt 0.4190 0.3089
vt 0.3324 0.5040
vt 0.3013 0.5514
vt 0.2644 0.4937
vt 0.3090 0.4439
vt 0.6699 0.3759
vt 0.6341 0.3188
vt 0.6251 0.5295
vt 0.5634 0.5093
vt 0.6043 0.3833
vt 0.6389 0.4619
vt 0.5299 0.4477
vt 0.4810 0.4069
vt 0.4972 0.3307
vt 0.5538 0.3412
vt 0.8388 0.5654
vt 0.8028 0.5400
vt 0.8260 0.4391
vt 0.8661 0.4688
vt 0.8339 0.7558
vt 0.7740 0.7390
vt 0.7968 0.6081
vt 0.8228 0.6290
vt 0.7058 0.6790
vt 0.6666 0.6119
vt 0.6976 0.5460
vt 0.7304 0.6082
vt 0.9078 0.7226
vt 0.8835 0.6753
vt 0.9121 0.7985
vt 0.8957 0.6024
vt 0.9005 0.4794
vt 0.4792 0.4787
vt 0.3932 0.5510
vt 0.3533 0.5814
vt 0.3292 0.6114
vt 0.4323 0.5225
vt 0.2921 0.7580
vt 0.2103 0.8054
vt 0.1290 0.7712
vt 0.3200 0.6669
vt 0.0340 0.3503
vt 0.0712 0.2521
vt 0.9469 0.4554
vt 0.8721 0.1451
vt 0.9774 0.2068
vt 0.9026 0.8835
vt 0.3818 0.8714
vn -0.7744 -0.3875 -0.5001
vn 0.5519 -0.2606 -0.7922
vn 0.6670 -0.6327 0.3934
vn -0.4498 -0.5155 0.7294
vn 0.5037 -0.7647 -0.4019
vn -0.5358 0.7766 -0.3314
vn -0.5399 0.8374 0.0851
vn 0.3725 0.9149 0.1558
vn 0.3908 0.7298 -0.5610
vn 0.5941 -0.7289 0.3404
vn -0.1419 -0.9167 0.3735
vn -0.4505 -0.7636 -0.4626
vn 0.0719 -0.6843 0.7256
vn 0.0237 0.2602 0.9653
vn -0.7075 0.0991 0.6997
vn 0.8735 -0.4859 0.0305
vn 0.9933 -0.0254 -0.1130
vn 0.6808 0.5137 0.5222
vn -0.3606 -0.4467 -0.8188
vn -0.0912 -0.0453 -0.9948
vn 0.5038 0.4263 -0.7513
vn -0.7979 -0.6017 -0.0370
vn -0.9283 0.3675 0.0576
vn -0.7842 0.1547 -0.6009
vn -0.9730 0.2004 -0.1148
vn -0.7574 0.6495 -0.0669
vn -0.7195 0.4936 -0.4886
vn -0.8741 0.4238 0.2374
vn -0.6946 0.5718 0.4365
vn -0.8196 0.5492 0.1631
vn -0.6020 -0.4068 0.6871
vn -0.8135 -0.1597 0.5593
vn -0.9660 -0.2077 -0.1543
vn -0.1124 0.2346 -0.9656
vn 0.2740 0.5312 -0.8017
vn 0.4539 0.5306 -0.7159
vn -0.5905 -0.1330 -0.7960
vn -0.6540 0.3128 -0.6888
vn -0.0162 0.3797 -0.9250
vn -0.6960 -0.3965 -0.5987
vn -0.5854 0.1033 -0.8042
vn -0.1869 0.2838 -0.9405
vn 0.9480 0.2867 -0.1380
vn 0.7110 0.7031 0.0117
vn 0.6861 0.7234 0.0768
vn 0.9151 0.0706 -0.3970
vn 0.5986 0.6614 -0.4519
vn 0.7722 0.6330 -0.0560
vn 0.8494 -0.3326 -0.4097
vn 0.9244 -0.1383 -0.3555
vn 0.9915 -0.0425 -0.1233
vn 0.0005 0.1203 0.9927
vn -0.0902 0.6005 0.7945
vn -0.6667 0.6685 0.3294
vn 0.4330 0.3918 0.8118
vn 0.4224 0.7220 0.5480
vn 0.2051 0.6684 0.7149
vn 0.5264 -0.6517 0.5461
vn 0.5600 -0.2140 0.8004
vn -0.0151 -0.3063 0.9518
vn -0.2610 -0.9611 -0.0904
vn -0.5832 -0.8102 -0.0594
vn -0.5603 -0.6761 -0.4785
vn -0.1237 -0.8282 0.5467
vn -0.1823 -0.7944 0.5794
vn -0.4332 -0.8752 0.2153
vn 0.4659 -0.7814 0.4152
vn 0.2334 -0.8426 0.4853
vn 0.1491 -0.8820 0.4470
vn 0.4906 0.8569 -0.1583
vn 0.6256 0.7696 -0.1282
vn 0.5524 0.7220 -0.4166
vn 0.2849 0.8548 0.4337
vn 0.6378 0.7583 0.1350
vn 0.7000 0.7102 0.0752
vn -0.5401 0.7213 0.4337
vn -0.3164 0.9048 0.2849
vn -0.4574 0.8404 0.2908
vn -0.5936 0.7851 -0.1767
vn -0.3474 0.8611 -0.3712
vn -0.1801 0.8811 -0.4373
vn 0.6064 -0.7950 -0.0156
vn 0.2862 -0.9443 -0.1623
vn 0.1542 -0.8687 -0.4707
vn -0.1317 -0.6149 0.7775
vn -0.2181 -0.4451 0.8685
vn -0.6146 -0.3665 0.6985
vn 0.8325 -0.5502 0.0655
vn 0.9785 -0.1994 -0.0531
vn 0.8057 -0.2528 0.5356
vn 0.0772 -0.3868 -0.9189
vn -0.1158 0.0625 -0.9913
vn 0.6284 -0.2990 -0.7181
vn -0.8163 -0.5515 -0.1719
vn -0.9423 -0.1225 -0.3116
vn -0.8163 -0.1961 -0.5433
usemtl Material.001
s 1
f 1/1/1 2/2/1 3/3/1 4/4/1
f 5/5/2 6/6/2 7/7/2 8/8/2
f 9/9/3 10/10/3 11/11/3 12/12/3
f 13/13/4 14/14/4 15/15/4 16/16/4
f 17/17/5 8/8/5 7/7/5 18/18/5
f 19/19/6 20/20/6 21/21/6 22/22/6
f 23/23/7 24/24/7 25/25/7 26/26/7
f 27/27/8 28/28/8 29/29/8 30/30/8
f 31/31/9 32/32/9 33/33/9 34/34/9
f 35/35/10 36/36/10 37/37/10 12/12/10
f 38/38/11 39/39/11 40/40/11 41/41/11
f 42/42/12 43/43/12 44/44/12 45/45/12
f 46/46/13 47/47/13 48/48/13 49/49/13
f 50/50/14 51/51/14 52/52/14 53/53/14
f 54/54/15 55/55/15 56/56/15 57/57/15
f 58/58/16 59/59/16 37/37/16 18/18/16
f 60/60/17 61/61/17 62/62/17 63/63/17
f 64/64/18 65/65/18 66/66/18 67/67/18
f 68/68/19 69/69/19 44/44/19 43/43/19
f 70/70/20 71/71/20 72/72/20 73/73/20
f 74/74/21 75/75/21 76/76/21 77/77/21
f 78/78/22 79/79/22 80/80/22 81/81/22
f 82/82/23 83/83/23 84/84/23 85/85/23
f 86/86/24 87/87/24 88/88/24 89/89/24
f 83/83/25 86/86/25 89/89/25 84/84/25
f 25/25/26 22/22/26 86/86/26 83/83/26
f 22/22/27 21/21/27 87/87/27 86/86/27
f 55/90/28 82/82/28 85/85/28 56/91/28
f 90/92/29 26/26/29 82/82/29 55/90/29
f 26/26/30 25/25/30 83/83/30 82/82/30
f 14/93/31 78/78/31 81/81/31 15/94/31
f 56/91/32 85/85/32 78/78/32 14/93/32
f 85/85/33 84/84/33 79/79/33 78/78/33
f 71/71/34 74/74/34 77/77/34 72/72/34
f 33/33/35 32/32/35 74/74/35 71/71/35
f 32/32/36 91/95/36 75/75/36 74/74/36
f 87/87/37 70/70/37 73/73/37 88/88/37
f 21/21/38 20/20/38 70/70/38 87/87/38
f 20/20/39 33/33/39 71/71/39 70/70/39
f 2/2/40 68/68/40 43/43/40 3/3/40
f 88/88/41 73/73/41 68/68/41 2/2/41
f 73/73/42 72/72/42 69/69/42 68/68/42
f 61/61/43 64/64/43 67/67/43 62/62/43
f 92/96/44 93/97/44 64/64/44 61/61/44
f 93/97/45 94/98/45 65/65/45 64/64/45
f 75/75/46 60/60/46 63/63/46 76/76/46
f 91/95/47 95/99/47 60/60/47 75/75/47
f 95/99/48 92/96/48 61/61/48 60/60/48
f 6/6/49 58/58/49 18/18/49 7/7/49
f 76/76/50 63/63/50 58/58/50 6/6/50
f 63/63/51 62/62/51 59/59/51 58/58/51
f 51/51/52 54/54/52 57/57/52 52/52/52
f 96/100/53 97/101/53 54/54/53 51/51/53
f 97/101/54 90/102/54 55/55/54 54/54/54
f 65/65/55 50/50/55 53/53/55 66/66/55
f 94/98/56 98/103/56 50/50/56 65/65/56
f 98/103/57 96/100/57 51/51/57 50/50/57
f 10/10/58 46/46/58 49/49/58 11/11/58
f 66/66/59 53/53/59 46/46/59 10/10/59
f 53/53/60 52/52/60 47/47/60 46/46/60
f 39/39/61 42/42/61 45/45/61 40/40/61
f 80/80/62 4/4/62 42/42/62 39/39/62
f 4/4/63 3/3/63 43/43/63 42/42/63
f 16/16/64 38/104/64 41/105/64 48/48/64
f 15/94/65 81/81/65 38/38/65 16/106/65
f 81/81/66 80/80/66 39/39/66 38/38/66
f 49/49/67 35/35/67 12/12/67 11/11/67
f 48/48/68 41/105/68 35/35/68 49/49/68
f 41/41/69 40/40/69 36/107/69 35/108/69
f 28/28/70 31/31/70 34/34/70 29/29/70
f 92/96/71 95/99/71 31/31/71 28/28/71
f 95/99/72 91/95/72 32/32/72 31/31/72
f 98/103/73 27/27/73 30/30/73 96/100/73
f 94/98/74 93/97/74 27/27/74 98/103/74
f 93/97/75 92/96/75 28/28/75 27/27/75
f 97/109/76 23/23/76 26/26/76 90/92/76
f 96/100/77 30/30/77 23/110/77 97/101/77
f 30/30/78 29/29/78 24/24/78 23/110/78
f 24/24/79 19/19/79 22/22/79 25/25/79
f 29/29/80 34/34/80 19/19/80 24/24/80
f 34/34/81 33/33/81 20/20/81 19/19/81
f 36/107/82 17/17/82 18/18/82 37/37/82
f 40/40/83 45/45/83 17/17/83 36/107/83
f 45/45/84 44/44/84 8/8/84 17/17/84
f 47/47/85 13/13/85 16/16/85 48/48/85
f 52/52/86 57/57/86 13/13/86 47/47/86
f 57/57/87 56/56/87 14/14/87 13/13/87
f 59/59/88 9/9/88 12/12/88 37/37/88
f 62/62/89 67/67/89 9/9/89 59/59/89
f 67/67/90 66/66/90 10/10/90 9/9/90
f 69/69/91 5/5/91 8/8/91 44/44/91
f 72/72/92 77/77/92 5/5/92 69/69/92
f 77/77/93 76/76/93 6/6/93 5/5/93
f 79/79/94 1/1/94 4/4/94 80/80/94
f 84/84/95 89/89/95 1/1/95 79/79/95
f 89/89/96 88/88/96 2/2/96 1/1/96
