# Blender v2.77 (sub 0) OBJ File: ''
# www.blender.org
# not convert to polar coordinates
mtllib map2.mtl
o Sphere.001
v -0.000000 -1.000000 -0.020117
v -0.000000 1.000000 -0.020117
v 0.017422 -1.000000 0.010058
v 0.017422 1.000000 0.010058
v -0.017422 -1.000000 0.010058
v -0.017422 1.000000 0.010058
v -0.000000 0.020117 -1.000000
v -0.000000 0.020117 1.000000
v 0.017422 -0.010059 -1.000000
v 0.017422 -0.010058 1.000000
v -0.017422 -0.010059 -1.000000
v -0.017422 -0.010058 1.000000
v -1.000000 0.020117 -0.000000
v 1.000000 0.020117 0.000000
v -1.000000 -0.010059 -0.017422
v 1.000000 -0.010058 -0.017422
v -1.000000 -0.010059 0.017422
v 1.000000 -0.010058 0.017422
vn 0.8660 0.0000 -0.5000
vn 0.0000 0.0000 1.0000
vn 0.0000 1.0000 0.0000
vn -0.8660 0.0000 -0.5000
vn 0.0000 -1.0000 0.0000
vn 0.0000 0.5000 -0.8660
vn 1.0000 0.0000 0.0000
vn -0.0000 0.5000 0.8660
vn -1.0000 -0.0000 0.0000
vn 0.8660 0.5000 -0.0000
vn -0.8660 0.5000 -0.0000
vn 0.0000 -0.0000 -1.0000
usemtl Material.001
s off
f 1//1 2//1 4//1 3//1
f 3//2 4//2 6//2 5//2
f 4//3 2//3 6//3
f 5//4 6//4 2//4 1//4
f 1//5 3//5 5//5
usemtl Material.002
f 13//6 14//6 16//6 15//6
f 15//5 16//5 18//5 17//5
f 16//7 14//7 18//7
f 17//8 18//8 14//8 13//8
f 13//9 15//9 17//9
usemtl Material.003
f 7//10 8//10 10//10 9//10
f 9//5 10//5 12//5 11//5
f 10//2 8//2 12//2
f 11//11 12//11 8//11 7//11
f 7//12 9//12 11//12
