# Blender v2.77 (sub 0) OBJ File: ''
# www.blender.org
mtllib dosei.mtl
o Icosphere
v 0.186576 -0.956250 -0.226206
v 0.606017 -0.791448 0.082989
v 0.051063 -0.951073 0.303229
v 0.844696 -0.390183 0.367095
v 0.929817 -0.329444 -0.169334
v -0.354956 -0.920449 -0.161716
v -0.050925 -0.741899 -0.669307
v 0.542985 -0.662172 -0.518066
v 0.961813 0.129200 0.243693
v -0.099452 -0.661756 0.741793
v 0.437897 -0.618348 0.651966
v 0.102825 -0.208980 0.971531
v -0.790213 -0.609653 -0.049225
v -0.523081 -0.747350 0.407257
v -0.897109 -0.258084 0.355337
v -0.272966 -0.305885 -0.912796
v -0.625070 -0.538175 -0.565282
v -0.656113 0.049746 -0.753319
v 0.737459 -0.170245 -0.655487
v 0.272876 -0.279896 -0.921635
v 0.492764 0.289100 -0.822319
v 0.657786 -0.049354 0.751291
v -0.491091 -0.288708 0.820292
v -0.960141 -0.128808 -0.245721
v -0.101153 0.209372 -0.973559
v 0.898781 0.258476 -0.357365
v 0.274639 0.306277 0.910768
v 0.626742 0.538567 0.563254
v 0.052597 0.742291 0.667279
v -0.735787 0.170637 0.653460
v -0.271203 0.280288 0.919608
v -0.541313 0.662564 0.516038
v -0.843024 0.390576 -0.369123
v -0.928145 0.329836 0.167306
v -0.604344 0.791840 -0.085016
v 0.101125 0.662148 -0.743820
v -0.436224 0.618740 -0.653993
v -0.049391 0.951465 -0.305256
v 0.791886 0.610046 0.047197
v 0.524753 0.747742 -0.409285
v 0.356628 0.920841 0.159688
v -0.184903 0.956642 0.224178
v 1.202873 -0.021705 1.010490
v 0.990132 -0.111048 1.214483
v 1.710113 -0.002440 1.448741
v -1.533257 -0.265139 -0.212356
v -1.475943 -0.185288 -0.504233
v -2.193266 -0.349725 -0.295781
v 1.369537 0.067875 0.767486
v 1.947877 0.125356 1.102068
v -1.531500 -0.335398 0.087500
v -2.190760 -0.449957 0.131996
v 1.483720 0.154251 0.494805
v -1.470738 -0.393364 0.383812
v -2.104077 -0.532651 0.554717
v 1.541034 0.234103 0.202928
v 2.192535 0.362497 0.296666
v -1.353308 -0.436810 0.665194
v 1.539276 0.304362 -0.096928
v 2.190028 0.462729 -0.131111
v -1.183720 -0.464066 0.920832
v -1.694615 -0.633514 1.320832
v 1.478513 0.362328 -0.393241
v -0.968494 -0.474084 1.140901
v 1.361082 0.405773 -0.674623
v 1.935817 0.607403 -0.955252
v -0.715900 -0.466480 1.316945
v -1.027220 -0.636958 1.885931
v 1.191495 0.433029 -0.930260
v 1.693882 0.646286 -1.319947
v -0.435645 -0.441545 1.442198
v -0.627406 -0.601386 2.064619
v -0.452804 0.244392 -1.485295
v -0.156344 0.313112 -1.532644
v -0.651885 0.377174 -2.111763
v 0.976269 0.443047 -1.150329
v 1.386839 0.660577 -1.633899
v -0.138498 -0.400239 1.511848
v -0.203494 -0.542458 2.163981
v -0.731714 0.165683 -1.381049
v 0.723675 0.435443 -1.326373
v 1.026486 0.649729 -1.885043
v 0.164121 -0.344148 1.523216
v 0.228222 -0.462438 2.180199
v -0.982355 0.080012 -1.223910
v -1.407347 0.142669 -1.738870
v 0.443418 0.410509 -1.451627
v 0.626671 0.614157 -2.063731
v 0.460581 -0.275428 1.475868
v 0.651155 -0.364402 2.112650
v -1.195096 -0.009331 -1.019919
v -1.710844 0.015212 -1.447854
v 0.146272 0.369202 -1.521275
v 0.739491 -0.196720 1.371621
v -1.361760 -0.098912 -0.776913
v 1.194365 0.022103 1.020805
v 0.981625 -0.067240 1.224797
v 1.406616 -0.129896 1.739757
v -1.541764 -0.221331 -0.202042
v -1.484451 -0.141479 -0.493918
v -2.111502 -0.235808 -0.712174
v 1.361030 0.111684 0.777800
v -1.540007 -0.291590 0.097814
v 1.475213 0.198060 0.505119
v 2.110772 0.248581 0.713060
v -1.479245 -0.349556 0.394126
v 1.532526 0.277911 0.213242
v -1.361815 -0.393001 0.675508
v -1.936549 -0.594631 0.956138
v 1.530768 0.348170 -0.086614
v -1.192228 -0.420257 0.931147
v 1.470006 0.406136 -0.382927
v 2.103345 0.545423 -0.553832
v -0.977002 -0.430275 1.151215
v -1.387572 -0.647806 1.634784
v 1.352575 0.449582 -0.664309
v -0.724407 -0.422671 1.327259
v 1.182988 0.476837 -0.919946
v -0.444152 -0.397737 1.452513
v -0.461311 0.288200 -1.474980
v -0.164851 0.356920 -1.522329
v -0.228953 0.475210 -2.179311
v 0.967762 0.486856 -1.140015
v -0.147006 -0.356431 1.522163
v -0.740222 0.209492 -1.370734
v -1.049780 0.264888 -1.963044
v 0.715167 0.479251 -1.316059
v 0.155613 -0.300339 1.533531
v -0.990863 0.123820 -1.213596
v 0.434911 0.454317 -1.441312
v 0.452073 -0.231620 1.486183
v -1.203604 0.034477 -1.009604
v 0.137765 0.413010 -1.510961
v 0.202761 0.555229 -2.163093
v 0.730984 -0.152911 1.381936
v 1.049049 -0.252116 1.963932
v -1.370268 -0.055103 -0.766599
v -1.948608 -0.112584 -1.101181
vn 0.2096 -0.9570 -0.2005
vn 0.1525 -0.9605 -0.2328
vn 0.2138 -0.9550 -0.2054
vn 0.1519 -0.9621 -0.2263
vn 0.2169 -0.9531 -0.2111
vn 0.1526 -0.9635 -0.2198
vn 0.2187 -0.9513 -0.2173
vn 0.1546 -0.9647 -0.2134
vn 0.2193 -0.9496 -0.2238
vn 0.1577 -0.9654 -0.2076
vn 0.2187 -0.9482 -0.2303
vn 0.1619 -0.9658 -0.2023
vn 0.2167 -0.9471 -0.2367
vn 0.1671 -0.9659 -0.1980
vn 0.2136 -0.9463 -0.2426
vn 0.1729 -0.9655 -0.1947
vn 0.1789 -0.9494 -0.2581
vn 0.2093 -0.9459 -0.2478
vn 0.1792 -0.9648 -0.1925
vn 0.1725 -0.9510 -0.2564
vn 0.2042 -0.9459 -0.2521
vn 0.1858 -0.9637 -0.1916
vn 0.1667 -0.9528 -0.2535
vn 0.1984 -0.9463 -0.2554
vn 0.1924 -0.9623 -0.1920
vn 0.1617 -0.9548 -0.2496
vn 0.1920 -0.9470 -0.2576
vn 0.1987 -0.9607 -0.1937
vn 0.1575 -0.9567 -0.2447
vn 0.1854 -0.9481 -0.2585
vn 0.2045 -0.9589 -0.1966
vn 0.1544 -0.9587 -0.2390
vn -0.1617 0.9548 0.2496
vn -0.2187 0.9513 0.2173
vn -0.1575 0.9567 0.2447
vn -0.2193 0.9496 0.2238
vn -0.1544 0.9587 0.2390
vn -0.2187 0.9482 0.2303
vn -0.1525 0.9605 0.2328
vn -0.2167 0.9471 0.2367
vn -0.1519 0.9621 0.2263
vn -0.2136 0.9463 0.2426
vn -0.1526 0.9635 0.2198
vn -0.2093 0.9459 0.2478
vn -0.1546 0.9647 0.2134
vn -0.2042 0.9459 0.2521
vn -0.1577 0.9654 0.2076
vn -0.1984 0.9463 0.2554
vn -0.1924 0.9623 0.1920
vn -0.1619 0.9658 0.2023
vn -0.1920 0.9470 0.2576
vn -0.1987 0.9607 0.1937
vn -0.1671 0.9659 0.1980
vn -0.1854 0.9481 0.2585
vn -0.2045 0.9589 0.1966
vn -0.1729 0.9655 0.1947
vn -0.1789 0.9494 0.2581
vn -0.2096 0.9570 0.2005
vn -0.1792 0.9648 0.1925
vn -0.1725 0.9510 0.2564
vn -0.2138 0.9550 0.2054
vn -0.1858 0.9637 0.1916
vn -0.1667 0.9528 0.2535
vn -0.2169 0.9531 0.2111
vn -0.8138 -0.2782 0.5102
vn -0.3707 -0.2805 0.8854
vn 0.8202 0.0247 0.5716
vn -0.9100 -0.0810 -0.4067
vn -0.9626 -0.2231 0.1537
vn -0.9826 -0.1821 -0.0369
vn 0.5506 -0.0885 0.8300
vn -0.1861 -0.2593 0.9477
vn 0.9826 0.1821 0.0369
vn -0.9648 -0.1341 -0.2261
vn 0.5411 0.2909 -0.7890
vn -0.6908 -0.2901 0.6623
vn 0.0057 -0.2281 0.9736
vn -0.3813 0.1411 -0.9136
vn -0.6988 0.0325 -0.7146
vn 0.1973 -0.1882 0.9621
vn 0.9626 0.2231 -0.1537
vn 0.9056 0.2556 -0.3385
vn -0.9056 -0.2556 0.3385
vn -0.5506 0.0885 -0.8300
vn -0.8202 -0.0247 -0.5716
vn 0.6988 -0.0325 0.7146
vn -0.5411 -0.2909 0.7890
vn 0.3707 0.2805 -0.8854
vn 0.8138 0.2782 -0.5102
vn 0.6908 0.2901 -0.6623
vn 0.9100 0.0810 0.4067
vn -0.0057 0.2281 -0.9736
vn 0.1861 0.2593 -0.9477
vn 0.9648 0.1341 0.2261
vn 0.3813 -0.1411 0.9136
vn -0.1973 0.1882 -0.9621
vn 0.3074 -0.9475 0.0880
vn 0.8346 -0.5464 0.0706
vn -0.0668 -0.9977 -0.0074
vn -0.1066 -0.9163 -0.3861
vn 0.2432 -0.8157 -0.5249
vn 0.9731 -0.1878 0.1332
vn 0.1818 -0.5083 0.8418
vn -0.7760 -0.5631 0.2843
vn -0.5766 -0.2764 -0.7689
vn 0.5045 -0.0444 -0.8623
vn 0.8672 -0.0787 0.4917
vn -0.1800 -0.3799 0.9073
vn -0.9462 -0.3222 0.0299
vn -0.3725 0.0148 -0.9279
vn 0.7482 0.1652 -0.6425
vn 0.3408 0.5847 0.7362
vn -0.5240 0.4149 0.7438
vn -0.8346 0.5464 -0.0706
vn -0.1616 0.7974 -0.5815
vn 0.5648 0.8210 -0.0829
vn 0.0668 0.9977 0.0074
vn 0.2960 0.9347 -0.1969
vn 0.2127 0.8476 -0.4862
vn -0.3074 0.9475 -0.0880
vn -0.3898 0.8426 -0.3715
vn -0.6430 0.6589 -0.3904
vn -0.4990 0.8350 0.2319
vn -0.7409 0.6364 0.2146
vn -0.7799 0.4342 0.4508
vn -0.2432 0.8157 0.5249
vn -0.2720 0.6011 0.7515
vn -0.0089 0.4841 0.8750
vn 0.1066 0.9163 0.3861
vn 0.3688 0.7854 0.4971
vn 0.6046 0.7396 0.2959
vn 0.7760 0.5631 -0.2843
vn 0.6829 0.4620 -0.5659
vn 0.4238 0.5896 -0.6876
vn -0.1818 0.5083 -0.8418
vn -0.4268 0.3130 -0.8485
vn -0.6631 0.3699 -0.6507
vn -0.9731 0.1878 -0.1332
vn -0.9948 -0.0206 0.0999
vn -0.9185 0.0757 0.3882
vn -0.5045 0.0444 0.8623
vn -0.2362 -0.0778 0.9686
vn 0.0107 0.1136 0.9935
vn 0.5766 0.2764 0.7689
vn 0.8006 0.2205 0.5571
vn 0.8403 0.4312 0.3286
vn 0.1800 0.3799 -0.9073
vn 0.2362 0.0778 -0.9686
vn -0.0107 -0.1136 -0.9935
vn -0.8672 0.0787 -0.4917
vn -0.8006 -0.2205 -0.5571
vn -0.8403 -0.4312 -0.3286
vn -0.7482 -0.1652 0.6425
vn -0.6829 -0.4620 0.5659
vn -0.4238 -0.5896 0.6876
vn 0.3725 -0.0148 0.9279
vn 0.4268 -0.3130 0.8485
vn 0.6631 -0.3699 0.6507
vn 0.9462 0.3222 -0.0299
vn 0.9948 0.0206 -0.0999
vn 0.9185 -0.0757 -0.3882
vn 0.5240 -0.4149 -0.7438
vn 0.2721 -0.6011 -0.7515
vn 0.0089 -0.4841 -0.8750
vn -0.3408 -0.5847 -0.7362
vn -0.3688 -0.7854 -0.4971
vn -0.6046 -0.7396 -0.2959
vn -0.5648 -0.8210 0.0829
vn -0.2960 -0.9347 0.1969
vn -0.2127 -0.8476 0.4862
vn 0.7799 -0.4342 -0.4508
vn 0.7409 -0.6364 -0.2146
vn 0.4990 -0.8350 -0.2319
vn 0.1616 -0.7974 0.5815
vn 0.3898 -0.8426 0.3715
vn 0.6430 -0.6589 0.3904
usemtl Material
s off
f 43//1 45//1 98//1 44//1
f 46//2 48//2 101//2 47//2
f 49//3 50//3 45//3 43//3
f 51//4 52//4 48//4 46//4
f 53//5 105//5 50//5 49//5
f 54//6 55//6 52//6 51//6
f 56//7 57//7 105//7 53//7
f 58//8 109//8 55//8 54//8
f 59//9 60//9 57//9 56//9
f 61//10 62//10 109//10 58//10
f 63//11 113//11 60//11 59//11
f 64//12 115//12 62//12 61//12
f 65//13 66//13 113//13 63//13
f 67//14 68//14 115//14 64//14
f 69//15 70//15 66//15 65//15
f 71//16 72//16 68//16 67//16
f 73//17 75//17 122//17 74//17
f 76//18 77//18 70//18 69//18
f 78//19 79//19 72//19 71//19
f 80//20 126//20 75//20 73//20
f 81//21 82//21 77//21 76//21
f 83//22 84//22 79//22 78//22
f 85//23 86//23 126//23 80//23
f 87//24 88//24 82//24 81//24
f 89//25 90//25 84//25 83//25
f 91//26 92//26 86//26 85//26
f 93//27 134//27 88//27 87//27
f 94//28 136//28 90//28 89//28
f 95//29 138//29 92//29 91//29
f 74//30 122//30 134//30 93//30
f 44//31 98//31 136//31 94//31
f 47//32 101//32 138//32 95//32
f 96//33 97//33 98//33 45//33
f 99//34 100//34 101//34 48//34
f 102//35 96//35 45//35 50//35
f 103//36 99//36 48//36 52//36
f 104//37 102//37 50//37 105//37
f 106//38 103//38 52//38 55//38
f 107//39 104//39 105//39 57//39
f 108//40 106//40 55//40 109//40
f 110//41 107//41 57//41 60//41
f 111//42 108//42 109//42 62//42
f 112//43 110//43 60//43 113//43
f 114//44 111//44 62//44 115//44
f 116//45 112//45 113//45 66//45
f 117//46 114//46 115//46 68//46
f 118//47 116//47 66//47 70//47
f 119//48 117//48 68//48 72//48
f 120//49 121//49 122//49 75//49
f 123//50 118//50 70//50 77//50
f 124//51 119//51 72//51 79//51
f 125//52 120//52 75//52 126//52
f 127//53 123//53 77//53 82//53
f 128//54 124//54 79//54 84//54
f 129//55 125//55 126//55 86//55
f 130//56 127//56 82//56 88//56
f 131//57 128//57 84//57 90//57
f 132//58 129//58 86//58 92//58
f 133//59 130//59 88//59 134//59
f 135//60 131//60 90//60 136//60
f 137//61 132//61 92//61 138//61
f 121//62 133//62 134//62 122//62
f 97//63 135//63 136//63 98//63
f 100//64 137//64 138//64 101//64
f 69//65 65//65 116//65 118//65
f 87//66 81//66 127//66 130//66
f 95//67 91//67 132//67 137//67
f 53//68 49//68 102//68 104//68
f 63//69 59//69 110//69 112//69
f 59//70 56//70 107//70 110//70
f 85//71 80//71 125//71 129//71
f 93//72 87//72 130//72 133//72
f 51//73 46//73 99//73 103//73
f 56//74 53//74 104//74 107//74
f 67//75 64//75 114//75 117//75
f 76//76 69//76 118//76 123//76
f 74//77 93//77 133//77 121//77
f 94//78 89//78 131//78 135//78
f 43//79 44//79 97//79 96//79
f 73//80 74//80 121//80 120//80
f 54//81 51//81 103//81 106//81
f 58//82 54//82 106//82 108//82
f 65//83 63//83 112//83 116//83
f 44//84 94//84 135//84 97//84
f 49//85 43//85 96//85 102//85
f 91//86 85//86 129//86 132//86
f 81//87 76//87 123//87 127//87
f 71//88 67//88 117//88 119//88
f 61//89 58//89 108//89 111//89
f 64//90 61//90 111//90 114//90
f 47//91 95//91 137//91 100//91
f 83//92 78//92 124//92 128//92
f 78//93 71//93 119//93 124//93
f 46//94 47//94 100//94 99//94
f 80//95 73//95 120//95 125//95
f 89//96 83//96 128//96 131//96
usemtl Material.001
s 1
f 1//97 2//97 3//97
f 4//98 2//98 5//98
f 1//99 3//99 6//99
f 1//100 6//100 7//100
f 1//101 7//101 8//101
f 4//102 5//102 9//102
f 10//103 11//103 12//103
f 13//104 14//104 15//104
f 16//105 17//105 18//105
f 19//106 20//106 21//106
f 4//107 9//107 22//107
f 10//108 12//108 23//108
f 13//109 15//109 24//109
f 16//110 18//110 25//110
f 19//111 21//111 26//111
f 27//112 28//112 29//112
f 30//113 31//113 32//113
f 33//114 34//114 35//114
f 36//115 37//115 38//115
f 39//116 40//116 41//116
f 41//117 38//117 42//117
f 41//118 40//118 38//118
f 40//119 36//119 38//119
f 38//120 35//120 42//120
f 38//121 37//121 35//121
f 37//122 33//122 35//122
f 35//123 32//123 42//123
f 35//124 34//124 32//124
f 34//125 30//125 32//125
f 32//126 29//126 42//126
f 32//127 31//127 29//127
f 31//128 27//128 29//128
f 29//129 41//129 42//129
f 29//130 28//130 41//130
f 28//131 39//131 41//131
f 26//132 40//132 39//132
f 26//133 21//133 40//133
f 21//134 36//134 40//134
f 25//135 37//135 36//135
f 25//136 18//136 37//136
f 18//137 33//137 37//137
f 24//138 34//138 33//138
f 24//139 15//139 34//139
f 15//140 30//140 34//140
f 23//141 31//141 30//141
f 23//142 12//142 31//142
f 12//143 27//143 31//143
f 22//144 28//144 27//144
f 22//145 9//145 28//145
f 9//146 39//146 28//146
f 21//147 25//147 36//147
f 21//148 20//148 25//148
f 20//149 16//149 25//149
f 18//150 24//150 33//150
f 18//151 17//151 24//151
f 17//152 13//152 24//152
f 15//153 23//153 30//153
f 15//154 14//154 23//154
f 14//155 10//155 23//155
f 12//156 22//156 27//156
f 12//157 11//157 22//157
f 11//158 4//158 22//158
f 9//159 26//159 39//159
f 9//160 5//160 26//160
f 5//161 19//161 26//161
f 8//162 20//162 19//162
f 8//163 7//163 20//163
f 7//164 16//164 20//164
f 7//165 17//165 16//165
f 7//166 6//166 17//166
f 6//167 13//167 17//167
f 6//168 14//168 13//168
f 6//169 3//169 14//169
f 3//170 10//170 14//170
f 5//171 8//171 19//171
f 5//172 2//172 8//172
f 2//173 1//173 8//173
f 3//174 11//174 10//174
f 3//175 2//175 11//175
f 2//176 4//176 11//176
